<mxfile host="app.diagrams.net" agent="Mozilla/5.0 (Windows NT 10.0; Win64; x64) AppleWebKit/537.36 (KHTML, like Gecko) Chrome/138.0.0.0 Safari/537.36" version="28.0.5">
  <diagram name="Page-1" id="1Yf0DpjjiRT-uze1itbf">
    <mxGraphModel dx="758" dy="1351" grid="1" gridSize="10" guides="1" tooltips="1" connect="1" arrows="1" fold="1" page="1" pageScale="1" pageWidth="850" pageHeight="1100" math="0" shadow="0">
      <root>
        <mxCell id="0" />
        <mxCell id="1" parent="0" />
        <mxCell id="qpyNJUGsoENN6Tz-ehog-44" value="" style="rounded=0;whiteSpace=wrap;html=1;strokeWidth=11;movable=1;resizable=1;rotatable=1;deletable=1;editable=1;locked=0;connectable=1;" vertex="1" parent="1">
          <mxGeometry x="1970" y="475" width="1330" height="770" as="geometry" />
        </mxCell>
        <mxCell id="qpyNJUGsoENN6Tz-ehog-45" value="MELIHAT&amp;nbsp;&lt;div&gt;PAGE BERANDA&lt;/div&gt;" style="ellipse;whiteSpace=wrap;html=1;" vertex="1" parent="1">
          <mxGeometry x="2471.25" y="545" width="160" height="80" as="geometry" />
        </mxCell>
        <mxCell id="qpyNJUGsoENN6Tz-ehog-46" value="&lt;span style=&quot;font-size: 11px;&quot;&gt;MELIHAT&lt;/span&gt;&lt;div&gt;&lt;span style=&quot;font-size: 11px;&quot;&gt;PAGE PENCARIAN&lt;/span&gt;&lt;/div&gt;" style="ellipse;whiteSpace=wrap;html=1;" vertex="1" parent="1">
          <mxGeometry x="2457.5" y="677.5" width="187.5" height="90" as="geometry" />
        </mxCell>
        <mxCell id="qpyNJUGsoENN6Tz-ehog-47" value="MELIHAT PAGE WILAYAH" style="ellipse;whiteSpace=wrap;html=1;" vertex="1" parent="1">
          <mxGeometry x="2441.25" y="807.5" width="220" height="75" as="geometry" />
        </mxCell>
        <mxCell id="qpyNJUGsoENN6Tz-ehog-48" value="&lt;font style=&quot;font-size: 18px;&quot;&gt;USER&lt;/font&gt;" style="shape=umlActor;verticalLabelPosition=bottom;verticalAlign=top;html=1;outlineConnect=0;" vertex="1" parent="1">
          <mxGeometry x="2040" y="767.5" width="75" height="125" as="geometry" />
        </mxCell>
        <mxCell id="qpyNJUGsoENN6Tz-ehog-49" value="&lt;font style=&quot;font-size: 14px;&quot;&gt;MENGAKSES WEBSITE&lt;/font&gt;" style="ellipse;whiteSpace=wrap;html=1;" vertex="1" parent="1">
          <mxGeometry x="2178.75" y="785" width="161.25" height="90" as="geometry" />
        </mxCell>
        <mxCell id="qpyNJUGsoENN6Tz-ehog-50" value="&lt;font style=&quot;font-size: 13px;&quot;&gt;&amp;lt;&amp;lt;include&amp;gt;&amp;gt;&lt;/font&gt;" style="endArrow=open;endSize=12;dashed=1;html=1;rounded=0;exitX=0.5;exitY=0;exitDx=0;exitDy=0;entryX=0;entryY=1;entryDx=0;entryDy=0;" edge="1" parent="1" source="qpyNJUGsoENN6Tz-ehog-49" target="qpyNJUGsoENN6Tz-ehog-45">
          <mxGeometry width="160" relative="1" as="geometry">
            <mxPoint x="2910" y="765" as="sourcePoint" />
            <mxPoint x="3070" y="765" as="targetPoint" />
          </mxGeometry>
        </mxCell>
        <mxCell id="qpyNJUGsoENN6Tz-ehog-51" value="&lt;font style=&quot;font-size: 13px;&quot;&gt;&amp;lt;&amp;lt;include&amp;gt;&amp;gt;&lt;/font&gt;" style="endArrow=open;endSize=12;dashed=1;html=1;rounded=0;exitX=1;exitY=0.5;exitDx=0;exitDy=0;entryX=0.083;entryY=0.271;entryDx=0;entryDy=0;entryPerimeter=0;" edge="1" parent="1" source="qpyNJUGsoENN6Tz-ehog-49" target="qpyNJUGsoENN6Tz-ehog-47">
          <mxGeometry x="0.1717" y="3" width="160" relative="1" as="geometry">
            <mxPoint x="2790" y="1207" as="sourcePoint" />
            <mxPoint x="2909" y="1105" as="targetPoint" />
            <mxPoint as="offset" />
          </mxGeometry>
        </mxCell>
        <mxCell id="qpyNJUGsoENN6Tz-ehog-52" value="LOGOUT" style="ellipse;whiteSpace=wrap;html=1;" vertex="1" parent="1">
          <mxGeometry x="2453.13" y="1050" width="197.5" height="70" as="geometry" />
        </mxCell>
        <mxCell id="qpyNJUGsoENN6Tz-ehog-53" value="&lt;font style=&quot;font-size: 13px;&quot;&gt;&amp;lt;&amp;lt;include&amp;gt;&amp;gt;&lt;/font&gt;" style="endArrow=open;endSize=12;dashed=1;html=1;rounded=0;exitX=0.5;exitY=1;exitDx=0;exitDy=0;entryX=0.216;entryY=0.035;entryDx=0;entryDy=0;entryPerimeter=0;" edge="1" parent="1" source="qpyNJUGsoENN6Tz-ehog-49" target="qpyNJUGsoENN6Tz-ehog-52">
          <mxGeometry width="160" relative="1" as="geometry">
            <mxPoint x="2760" y="1085" as="sourcePoint" />
            <mxPoint x="2937" y="1166" as="targetPoint" />
          </mxGeometry>
        </mxCell>
        <mxCell id="qpyNJUGsoENN6Tz-ehog-54" value="&lt;font style=&quot;font-size: 13px;&quot;&gt;&amp;lt;&amp;lt;include&amp;gt;&amp;gt;&lt;/font&gt;" style="endArrow=open;endSize=12;dashed=1;html=1;rounded=0;exitX=0.946;exitY=0.245;exitDx=0;exitDy=0;entryX=0.013;entryY=0.646;entryDx=0;entryDy=0;exitPerimeter=0;entryPerimeter=0;" edge="1" parent="1" source="qpyNJUGsoENN6Tz-ehog-49" target="qpyNJUGsoENN6Tz-ehog-46">
          <mxGeometry width="160" relative="1" as="geometry">
            <mxPoint x="2900" y="865" as="sourcePoint" />
            <mxPoint x="3083" y="745" as="targetPoint" />
          </mxGeometry>
        </mxCell>
        <mxCell id="qpyNJUGsoENN6Tz-ehog-55" value="" style="endArrow=none;html=1;rounded=0;entryX=0;entryY=0.5;entryDx=0;entryDy=0;" edge="1" parent="1" source="qpyNJUGsoENN6Tz-ehog-48" target="qpyNJUGsoENN6Tz-ehog-49">
          <mxGeometry width="50" height="50" relative="1" as="geometry">
            <mxPoint x="2290" y="915" as="sourcePoint" />
            <mxPoint x="2190" y="835" as="targetPoint" />
          </mxGeometry>
        </mxCell>
        <mxCell id="qpyNJUGsoENN6Tz-ehog-56" value="&lt;font style=&quot;font-size: 27px;&quot;&gt;&lt;b&gt;USECASE USER&lt;/b&gt;&lt;/font&gt;" style="text;html=1;align=left;verticalAlign=middle;whiteSpace=wrap;rounded=0;" vertex="1" parent="1">
          <mxGeometry x="2040" y="495" width="260" height="30" as="geometry" />
        </mxCell>
        <mxCell id="qpyNJUGsoENN6Tz-ehog-57" value="MELIHAT&lt;div&gt;PAGE TENTANG KAMI&lt;/div&gt;" style="ellipse;whiteSpace=wrap;html=1;" vertex="1" parent="1">
          <mxGeometry x="2451.87" y="930" width="198.75" height="75" as="geometry" />
        </mxCell>
        <mxCell id="qpyNJUGsoENN6Tz-ehog-58" value="&lt;font style=&quot;font-size: 13px;&quot;&gt;&amp;lt;&amp;lt;include&amp;gt;&amp;gt;&lt;/font&gt;" style="endArrow=open;endSize=12;dashed=1;html=1;rounded=0;exitX=1;exitY=1;exitDx=0;exitDy=0;entryX=0.035;entryY=0.281;entryDx=0;entryDy=0;entryPerimeter=0;" edge="1" parent="1" source="qpyNJUGsoENN6Tz-ehog-49" target="qpyNJUGsoENN6Tz-ehog-57">
          <mxGeometry x="0.1717" y="3" width="160" relative="1" as="geometry">
            <mxPoint x="2360" y="937" as="sourcePoint" />
            <mxPoint x="2468" y="935" as="targetPoint" />
            <mxPoint as="offset" />
          </mxGeometry>
        </mxCell>
        <mxCell id="qpyNJUGsoENN6Tz-ehog-61" value="&lt;font style=&quot;font-size: 13px;&quot;&gt;&amp;lt;&amp;lt;extend&amp;gt;&amp;gt;&lt;/font&gt;" style="endArrow=open;endSize=12;dashed=1;html=1;rounded=0;exitX=1;exitY=0.5;exitDx=0;exitDy=0;entryX=0;entryY=0.5;entryDx=0;entryDy=0;" edge="1" parent="1" source="qpyNJUGsoENN6Tz-ehog-45" target="qpyNJUGsoENN6Tz-ehog-62">
          <mxGeometry width="160" relative="1" as="geometry">
            <mxPoint x="2720" y="767" as="sourcePoint" />
            <mxPoint x="2760" y="585" as="targetPoint" />
          </mxGeometry>
        </mxCell>
        <mxCell id="qpyNJUGsoENN6Tz-ehog-62" value="MELIHAT REKOMENDASI&lt;div&gt;KEDAI KOPI&lt;/div&gt;" style="ellipse;whiteSpace=wrap;html=1;" vertex="1" parent="1">
          <mxGeometry x="2739.38" y="545" width="160" height="80" as="geometry" />
        </mxCell>
        <mxCell id="qpyNJUGsoENN6Tz-ehog-65" value="&lt;font style=&quot;font-size: 13px;&quot;&gt;&amp;lt;&amp;lt;extend&amp;gt;&amp;gt;&lt;/font&gt;" style="endArrow=open;endSize=12;dashed=1;html=1;rounded=0;exitX=1;exitY=0.5;exitDx=0;exitDy=0;entryX=0;entryY=0.5;entryDx=0;entryDy=0;" edge="1" parent="1" source="qpyNJUGsoENN6Tz-ehog-62" target="qpyNJUGsoENN6Tz-ehog-66">
          <mxGeometry width="160" relative="1" as="geometry">
            <mxPoint x="2960" y="705" as="sourcePoint" />
            <mxPoint x="3000" y="585" as="targetPoint" />
          </mxGeometry>
        </mxCell>
        <mxCell id="qpyNJUGsoENN6Tz-ehog-66" value="MELIHAT PROFIL&lt;div&gt;KEDAI KOPI&lt;/div&gt;" style="ellipse;whiteSpace=wrap;html=1;" vertex="1" parent="1">
          <mxGeometry x="3000" y="545" width="160" height="80" as="geometry" />
        </mxCell>
        <mxCell id="qpyNJUGsoENN6Tz-ehog-67" value="&lt;font style=&quot;font-size: 13px;&quot;&gt;&amp;lt;&amp;lt;extend&amp;gt;&amp;gt;&lt;/font&gt;" style="endArrow=open;endSize=12;dashed=1;html=1;rounded=0;exitX=1;exitY=0.5;exitDx=0;exitDy=0;entryX=0;entryY=0.5;entryDx=0;entryDy=0;" edge="1" parent="1" source="qpyNJUGsoENN6Tz-ehog-46" target="qpyNJUGsoENN6Tz-ehog-68">
          <mxGeometry width="160" relative="1" as="geometry">
            <mxPoint x="2710" y="760" as="sourcePoint" />
            <mxPoint x="2740" y="723" as="targetPoint" />
          </mxGeometry>
        </mxCell>
        <mxCell id="qpyNJUGsoENN6Tz-ehog-68" value="MELAKUKAN FILTER&amp;nbsp;&lt;div&gt;DAN PENCARIAN&lt;/div&gt;" style="ellipse;whiteSpace=wrap;html=1;" vertex="1" parent="1">
          <mxGeometry x="2790" y="682.5" width="160" height="80" as="geometry" />
        </mxCell>
        <mxCell id="qpyNJUGsoENN6Tz-ehog-69" value="&lt;font style=&quot;font-size: 13px;&quot;&gt;&amp;lt;&amp;lt;extend&amp;gt;&amp;gt;&lt;/font&gt;" style="endArrow=open;endSize=12;dashed=1;html=1;rounded=0;exitX=1;exitY=0.5;exitDx=0;exitDy=0;entryX=0;entryY=0.5;entryDx=0;entryDy=0;" edge="1" parent="1" source="qpyNJUGsoENN6Tz-ehog-47" target="qpyNJUGsoENN6Tz-ehog-70">
          <mxGeometry width="160" relative="1" as="geometry">
            <mxPoint x="2760" y="870" as="sourcePoint" />
            <mxPoint x="2780" y="845" as="targetPoint" />
          </mxGeometry>
        </mxCell>
        <mxCell id="qpyNJUGsoENN6Tz-ehog-70" value="MENCARI KEDAI&lt;div&gt;BERDASARKAN WILAYAH&lt;/div&gt;" style="ellipse;whiteSpace=wrap;html=1;" vertex="1" parent="1">
          <mxGeometry x="2790" y="805" width="160" height="80" as="geometry" />
        </mxCell>
      </root>
    </mxGraphModel>
  </diagram>
</mxfile>
